<?xml version="1.0" standalone="no"?>
<!DOCTYPE svg PUBLIC "-//W3C//DTD SVG 20010904//EN"
 "http://www.w3.org/TR/2001/REC-SVG-20010904/DTD/svg10.dtd">
<svg version="1.0" xmlns="http://www.w3.org/2000/svg"
 width="512.000000pt" height="512.000000pt" viewBox="0 0 512.000000 512.000000"
 preserveAspectRatio="xMidYMid meet">
<metadata>
Created by potrace 1.14, written by Peter Selinger 2001-2017
</metadata>
<g transform="translate(0.000000,512.000000) scale(0.100000,-0.100000)"
fill="#000000" stroke="none">
<path d="M3729 5109 c-461 -68 -840 -380 -989 -814 -39 -113 -68 -273 -73
-402 0 -14 -7 -10 -184 98 -231 140 -553 278 -711 305 -15 3 -32 6 -39 9 -66
23 -303 24 -389 2 -204 -53 -346 -200 -389 -402 -20 -98 -13 -303 15 -415 24
-98 61 -218 84 -272 15 -36 15 -37 -7 -44 -55 -17 -210 -96 -287 -146 -369
-238 -626 -605 -720 -1028 -29 -129 -35 -192 -35 -350 0 -198 7 -260 50 -423
103 -397 349 -737 699 -966 193 -126 450 -219 684 -249 142 -17 451 -4 544 24
9 3 25 6 35 8 149 29 366 121 516 219 268 175 478 422 611 718 l38 85 127 -42
c193 -65 292 -83 446 -79 141 3 198 16 298 66 74 37 130 88 178 162 153 235
118 597 -103 1056 -58 120 -160 301 -221 389 -16 24 -27 45 -25 47 1 2 35 6
73 9 117 11 157 17 237 37 353 88 643 324 803 653 160 328 165 706 14 1043
-57 128 -145 252 -259 364 -168 165 -371 274 -607 325 -88 18 -327 26 -414 13z
m396 -317 c234 -64 406 -188 541 -389 60 -89 92 -161 126 -280 32 -114 32
-333 0 -452 -46 -170 -126 -308 -247 -428 -161 -159 -340 -241 -585 -267 -183
-20 -171 -18 -286 -42 -226 -46 -522 -187 -709 -338 l-30 -25 -189 189 -188
188 49 63 c166 214 299 500 337 724 3 17 8 44 11 61 6 40 12 91 20 174 25 271
166 522 381 676 110 79 266 144 382 160 26 3 49 8 51 10 13 12 273 -7 336 -24z
m-2447 -782 c223 -46 541 -193 805 -372 85 -58 98 -71 91 -92 -15 -48 -98
-203 -146 -273 -28 -41 -87 -112 -130 -159 -43 -47 -83 -96 -88 -110 -13 -34
-12 -83 3 -117 12 -27 586 -610 637 -647 64 -46 134 -31 219 47 127 115 228
184 365 248 130 61 126 61 160 12 57 -81 173 -273 223 -367 211 -403 265 -742
139 -872 -49 -51 -116 -69 -240 -64 -291 10 -702 200 -1127 522 -53 40 -102
79 -110 86 -8 7 -27 24 -44 37 -119 91 -361 330 -504 496 -328 381 -551 761
-657 1120 -33 113 -43 298 -19 365 30 84 82 129 172 148 50 11 179 6 251 -8z
m-395 -1245 c48 -79 87 -146 87 -148 0 -2 -19 -9 -42 -16 -62 -18 -177 -75
-250 -123 -79 -52 -212 -184 -266 -264 -189 -282 -229 -633 -107 -939 219
-547 844 -793 1372 -539 242 116 438 336 518 582 16 47 36 65 49 44 5 -9 134
-89 216 -135 31 -18 44 -31 42 -44 -1 -10 -29 -72 -62 -138 -183 -368 -519
-630 -920 -716 -83 -17 -139 -22 -265 -23 -162 -1 -183 1 -310 28 -270 57
-547 227 -731 447 -155 186 -251 394 -294 639 -24 133 -21 387 5 480 2 8 7 31
10 50 19 108 112 322 192 441 44 64 129 168 166 203 154 144 263 214 467 304
14 6 28 11 31 11 3 1 45 -64 92 -144z m324 -462 c21 -27 40 -50 43 -53 3 -3
34 -39 69 -80 132 -153 403 -414 583 -562 l46 -37 -9 -46 c-37 -197 -146 -364
-306 -471 -233 -154 -537 -157 -771 -8 -210 135 -332 366 -326 616 7 278 176
525 434 633 52 22 149 49 192 54 4 1 24 -20 45 -46z"/>
</g>
</svg>
